<mxfile host="app.diagrams.net" modified="2024-05-28T02:24:17.791Z" agent="Mozilla/5.0 (Windows NT 10.0; Win64; x64) AppleWebKit/537.36 (KHTML, like Gecko) Chrome/123.0.0.0 Safari/537.36" version="24.4.9" etag="qCffyHK2RQNp9ciieRqt" type="github">
  <diagram name="Trang-1" id="sxFBcTXPozWTdBMCygWv">
    <mxGraphModel>
      <root>
        <mxCell id="0" />
        <mxCell id="1" parent="0" />
      </root>
    </mxGraphModel>
  </diagram>
</mxfile>
